<?xml version="1.0" encoding="UTF-8"?>
<svg xmlns="http://www.w3.org/2000/svg" xmlns:xlink="http://www.w3.org/1999/xlink" width="169px" height="150px" viewBox="0 0 432 384" version="1.1">
<g id="surface1">
<path style=" stroke:none;fill-rule:nonzero;fill:rgb(0%,0%,0%);fill-opacity:1;" d="M 48 0 C 21.523438 0 0 21.523438 0 48 L 0 264 C 0 290.476562 21.523438 312 48 312 L 180 312 L 171.976562 336 L 120 336 C 106.726562 336 96 346.726562 96 360 C 96 373.273438 106.726562 384 120 384 L 312 384 C 325.273438 384 336 373.273438 336 360 C 336 346.726562 325.273438 336 312 336 L 260.023438 336 L 252 312 L 384 312 C 410.476562 312 432 290.476562 432 264 L 432 48 C 432 21.523438 410.476562 0 384 0 Z M 384 48 L 384 216 L 48 216 L 48 48 Z M 384 48 "/>
</g>
</svg>
